<?xml version="1.0" encoding="UTF-8" standalone="no"?>
<!DOCTYPE svg PUBLIC "-//W3C//DTD SVG 1.1//EN" "http://www.w3.org/Graphics/SVG/1.1/DTD/svg11.dtd">
<svg xmlns="http://www.w3.org/2000/svg" xmlns:xlink="http://www.w3.org/1999/xlink" version="1.1" width="3306.2498pt" height="4677.083pt" viewBox="0 0 3306.2498 4677.083">
<g enable-background="new">
<clipPath id="cp0">
<path transform="matrix(.6666666,0,0,.6666666,0,0)" d="M 0 0 L 4959.375 0 L 4959.375 7015.625 L 0 7015.625 Z " fill-rule="evenodd"/>
</clipPath>
<g clip-path="url(#cp0)">
<path transform="matrix(2.0833333,0,0,2.0833333,0,0)" d="M 0 0 L 1587 0 L 1587 2245 L 0 2245 Z " fill="#ffffff"/>
</g>
<clipPath id="cp1">
<path transform="matrix(.6666666,0,0,.6666666,0,0)" d="M 0 0 L 4959.375 0 L 4959.375 7015.625 L 0 7015.625 Z " fill-rule="evenodd"/>
</clipPath>
<g clip-path="url(#cp1)">
<path transform="matrix(2.0833333,0,0,2.0833333,0,0)" d="M 0 0 L 1587 0 L 1587 2245 L 0 2245 Z " fill="#ffffff"/>
</g>
<clipPath id="cp2">
<path transform="matrix(.6666666,0,0,.6666666,0,0)" d="M 0 0 L 4959.375 0 L 4959.375 7015.625 L 0 7015.625 Z " fill-rule="evenodd"/>
</clipPath>
<g clip-path="url(#cp2)">
<g id="Layer-1" data-name="H1">
<g id="Layer-2" data-name="P">
</g>
<symbol id="font_3_2b">
<path d="M .58496096 0 L .43408204 0 L .43408204 .30810548 L .15136719 .30810548 L .15136719 0 L 0 0 L 0 .7138672 L .15136719 .7138672 L .15136719 .43408204 L .43408204 .43408204 L .43408204 .7138672 L .58496096 .7138672 L .58496096 0 Z "/>
</symbol>
<symbol id="font_3_4c">
<path d="M .15527344 .54589846 L .15527344 0 L .0063476564 0 L .0063476564 .54589846 L .15527344 .54589846 M .08105469 .7597656 C .1031901 .7597656 .12223307 .7545573 .1381836 .7441406 C .15413411 .7340495 .16210938 .71500656 .16210938 .6870117 C .16210938 .65934249 .15413411 .6401367 .1381836 .62939456 C .12223307 .61897787 .1031901 .61376956 .08105469 .61376956 C .05859375 .61376956 .03938802 .61897787 .0234375 .62939456 C .0078125 .6401367 0 .65934249 0 .6870117 C 0 .71500656 .0078125 .7340495 .0234375 .7441406 C .03938802 .7545573 .05859375 .7597656 .08105469 .7597656 Z "/>
</symbol>
<use xlink:href="#font_3_2b" transform="matrix(277.7708,0,0,-277.7708,24.95597,272.2223)"/>
<use xlink:href="#font_3_4c" transform="matrix(277.7708,0,0,-277.7708,232.46733,272.2223)"/>
</g>
<g id="Layer-1" data-name="H1">
<g id="Layer-2" data-name="P">
</g>
<symbol id="font_3_44">
<path d="M .25976563 .56689456 C .3330078 .56689456 .38916017 .55094406 .42822267 .51904299 C .46728517 .48714195 .4868164 .4386393 .4868164 .37353517 L .4868164 .009765625 L .3828125 .009765625 L .3540039 .083984378 L .35009767 .083984378 C .33447267 .064453128 .31852214 .048502607 .3022461 .036132814 C .28597007 .023763022 .2672526 .0146484379 .24609375 .0087890629 C .22493489 .0029296876 .19921875 0 .16894531 0 C .13671875 0 .1077474 .006184896 .08203125 .018554688 C .056640626 .030924479 .036621095 .049804689 .021972657 .07519531 C .0073242189 .10091146 0 .13346355 0 .17285156 C 0 .23079427 .020345053 .2734375 .061035158 .30078126 C .10172526 .32845054 .16276042 .34375 .24414063 .3466797 L .3388672 .34960938 L .3388672 .37353517 C .3388672 .402181 .33138023 .4231771 .31640626 .43652345 C .30143229 .44986979 .28059898 .45654298 .25390626 .45654298 C .22753906 .45654298 .20166016 .45279948 .17626953 .4453125 C .1508789 .43782554 .12548828 .4283854 .100097659 .4169922 L .05078125 .5175781 C .0797526 .5328776 .11214193 .5449219 .14794922 .55371096 C .18408203 .5625 .22135417 .56689456 .25976563 .56689456 M .3388672 .2626953 L .28125 .2607422 C .23307292 .2594401 .19954427 .2508138 .18066406 .23486328 C .16210938 .21891277 .15283203 .19791667 .15283203 .171875 C .15283203 .14908855 .1595052 .1328125 .17285156 .123046878 C .18619792 .11360677 .20361328 .10888672 .22509766 .10888672 C .2569987 .10888672 .28385417 .11832682 .30566407 .13720703 C .32779948 .15608724 .3388672 .1829427 .3388672 .21777344 L .3388672 .2626953 Z "/>
</symbol>
<symbol id="font_3_55">
<path d="M .3046875 .55615237 C .31217448 .55615237 .32080079 .55566409 .3305664 .5546875 C .34065757 .55403646 .34879557 .5530599 .35498048 .5517578 L .34375 .41210938 C .3388672 .41373698 .3318685 .4148763 .3227539 .41552735 C .31396485 .4165039 .3063151 .4169922 .2998047 .4169922 C .28059898 .4169922 .2618815 .41455079 .24365235 .40966798 C .2257487 .40478517 .20963542 .3968099 .1953125 .3857422 C .18098958 .375 .16959636 .3606771 .16113281 .34277345 C .1529948 .3251953 .14892578 .3035482 .14892578 .27783204 L .14892578 0 L 0 0 L 0 .54589846 L .11279297 .54589846 L .13476563 .45410157 L .14208985 .45410157 C .15283203 .47265626 .16617839 .48958335 .1821289 .5048828 C .19840496 .5205078 .21679688 .5328776 .23730469 .5419922 C .25813804 .5514323 .28059898 .55615237 .3046875 .55615237 Z "/>
</symbol>
<symbol id="font_3_48">
<path d="M .25830079 .56591799 C .3087565 .56591799 .35221354 .55615237 .38867188 .5366211 C .42513023 .51741537 .45328776 .48942057 .47314454 .45263673 C .4930013 .41585288 .5029297 .370931 .5029297 .3178711 L .5029297 .24560547 L .1508789 .24560547 C .15250652 .20361328 .16503906 .17057292 .18847656 .14648438 C .21223958 .12272135 .24511719 .110839847 .28710938 .110839847 C .3219401 .110839847 .35384117 .11442057 .3828125 .12158203 C .41178385 .12874349 .441569 .13948567 .47216798 .1538086 L .47216798 .03857422 C .44514976 .025227866 .41682945 .015462239 .38720704 .009277344 C .35791017 .003092448 .32226563 0 .28027345 0 C .22558594 0 .17708333 .0100911459 .13476563 .030273438 C .09277344 .05045573 .059733076 .081217449 .03564453 .122558597 C .011881511 .16389974 0 .21598308 0 .2788086 C 0 .3426107 .0107421879 .39567057 .032226564 .43798829 C .054036458 .4806315 .0843099 .51253256 .123046878 .5336914 C .16178386 .5551758 .20686849 .56591799 .25830079 .56591799 M .25927735 .45996095 C .23030599 .45996095 .20621746 .4506836 .18701172 .4321289 C .16813152 .41357423 .15722656 .3844401 .15429688 .34472657 L .36328126 .34472657 C .36295573 .36686198 .35888673 .386556 .35107423 .4038086 C .34358726 .4210612 .332194 .43473307 .31689454 .44482423 C .30192057 .45491538 .28271485 .45996095 .25927735 .45996095 Z "/>
</symbol>
<symbol id="font_3_11">
<path d="M 0 .08300781 C 0 .11360677 .008300781 .13509114 .024902344 .14746094 C .041829427 .15983074 .06217448 .16601563 .0859375 .16601563 C .10904948 .16601563 .12890625 .15983074 .14550781 .14746094 C .16243489 .13509114 .17089844 .11360677 .17089844 .08300781 C .17089844 .053710939 .16243489 .032552083 .14550781 .01953125 C .12890625 .0065104167 .10904948 0 .0859375 0 C .06217448 0 .041829427 .0065104167 .024902344 .01953125 C .008300781 .032552083 0 .053710939 0 .08300781 Z "/>
</symbol>
<use xlink:href="#font_3_44" transform="matrix(277.7708,0,0,-277.7708,308.97868,274.9349)" fill="#00bf63"/>
<use xlink:href="#font_3_55" transform="matrix(277.7708,0,0,-277.7708,486.78764,272.2223)" fill="#00bf63"/>
<use xlink:href="#font_3_48" transform="matrix(277.7708,0,0,-277.7708,603.69918,274.9349)" fill="#00bf63"/>
<use xlink:href="#font_3_44" transform="matrix(277.7708,0,0,-277.7708,766.9957,274.9349)" fill="#00bf63"/>
<use xlink:href="#font_3_11" transform="matrix(277.7708,0,0,-277.7708,938.97256,275.8843)" fill="#00bf63"/>
</g>
</g>
</g>
</svg>
